<svg version="1.1" id="Layer_1" xmlns="http://www.w3.org/2000/svg" xmlns:xlink="http://www.w3.org/1999/xlink" x="0px" y="0px"
	 width="100%" viewBox="0 0 300 114" enable-background="new 0 0 300 114" xml:space="preserve">
<path fill="#EB043B" opacity="1.000000" stroke="none" 
	d="
M0.999999,112.000000 
	C1.000000,106.977905 1.000000,101.955818 1.329051,96.346725 
	C2.125198,95.095535 2.698724,94.482132 3.043580,93.759598 
	C9.189498,80.882797 15.299858,67.989044 21.434000,55.106609 
	C27.570236,42.219784 33.588699,29.274120 39.935177,16.491472 
	C42.589504,11.145295 45.956841,6.153124 49.000000,1.000000 
	C80.354225,1.000000 111.708458,1.000000 143.531342,1.468657 
	C144.000000,39.624878 144.000000,77.312439 144.000000,115.000000 
	C98.312439,115.000000 52.624878,115.000000 6.333794,114.691132 
	C4.153515,113.588181 2.576757,112.794090 0.999999,112.000000 
z"/>
<path fill="#0085FF" opacity="1.000000" stroke="none" 
	d="
M301.000000,4.000003 
	C301.000000,9.354929 301.000000,14.709858 300.674286,20.648827 
	C299.229767,22.833200 297.864960,24.315147 297.029175,26.051691 
	C285.279480,50.463730 273.621307,74.919762 261.891357,99.341324 
	C259.361206,104.609062 256.635590,109.782906 254.000000,115.000000 
	C222.312439,115.000000 190.624878,115.000000 158.468658,114.531342 
	C158.000000,76.375122 158.000000,38.687561 158.000000,1.000000 
	C204.687561,1.000000 251.375122,1.000000 298.534851,1.366218 
	C299.671326,2.488293 300.335663,3.244149 301.000000,4.000003 
z"/>
<path fill="#47704C" opacity="1.000000" stroke="none" 
	d="
M301.000000,34.000000 
	C301.000000,59.354229 301.000000,84.708458 300.531342,110.531342 
	C287.982117,111.000000 275.901581,111.000000 262.874969,111.000000 
	C263.813416,107.542259 264.115326,105.053497 265.130768,102.901421 
	C275.339081,81.266502 285.605865,59.658321 296.065674,38.144459 
	C296.923370,36.380295 299.318970,35.363865 301.000000,34.000000 
z"/>
<path fill="#47704C" opacity="1.000000" stroke="none" 
	d="
M157.535355,1.000000 
	C158.000000,38.687561 158.000000,76.375122 158.000000,114.531342 
	C153.643097,115.000000 149.286194,115.000000 144.464645,115.000000 
	C144.000000,77.312439 144.000000,39.624878 144.000000,1.468657 
	C148.356903,1.000000 152.713806,1.000000 157.535355,1.000000 
z"/>
<path fill="#47704C" opacity="1.000000" stroke="none" 
	d="
M48.531342,1.000000 
	C45.956841,6.153124 42.589504,11.145295 39.935177,16.491472 
	C33.588699,29.274120 27.570236,42.219784 21.434000,55.106609 
	C15.299858,67.989044 9.189498,80.882797 3.043580,93.759598 
	C2.698724,94.482132 2.125198,95.095535 1.329051,95.879868 
	C1.000000,64.430511 1.000000,32.861015 1.000000,1.000000 
	C16.686357,1.000000 32.374519,1.000000 48.531342,1.000000 
M18.829834,55.396381 
	C25.988157,40.392845 33.157471,25.394533 40.298241,10.382646 
	C42.495880,5.762592 42.039062,5.051513 36.706200,5.016955 
	C28.223028,4.961983 19.731779,5.214312 11.258646,4.917298 
	C6.528171,4.751478 4.862396,6.282511 4.909372,11.142985 
	C5.119964,32.931973 4.991925,54.724155 5.021307,76.515137 
	C5.023334,78.018364 5.312868,79.521194 5.468698,81.024208 
	C5.879394,81.073341 6.290089,81.122475 6.700785,81.171608 
	C10.642509,72.810310 14.584234,64.449013 18.829834,55.396381 
z"/>
<path fill="#47704C" opacity="1.000000" stroke="none" 
	d="
M301.000000,33.536816 
	C299.318970,35.363865 296.923370,36.380295 296.065674,38.144459 
	C285.605865,59.658321 275.339081,81.266502 265.130768,102.901421 
	C264.115326,105.053497 263.813416,107.542259 262.874969,111.000000 
	C275.901581,111.000000 287.982117,111.000000 300.531342,111.000000 
	C301.000000,112.321785 301.000000,113.643578 301.000000,115.000000 
	C285.645782,115.000000 270.291565,115.000000 254.468658,115.000000 
	C256.635590,109.782906 259.361206,104.609062 261.891357,99.341324 
	C273.621307,74.919762 285.279480,50.463730 297.029175,26.051691 
	C297.864960,24.315147 299.229767,22.833200 300.674286,21.116434 
	C301.000000,25.024544 301.000000,29.049088 301.000000,33.536816 
z"/>
<path fill="#47704C" opacity="1.000000" stroke="none" 
	d="
M0.999999,112.500000 
	C2.576757,112.794090 4.153515,113.588181 5.865137,114.691132 
	C4.551853,113.787033 1.071129,117.655510 0.999999,112.500000 
z"/>
<path fill="#47704C" opacity="1.000000" stroke="none" 
	d="
M301.000000,3.500002 
	C300.335663,3.244149 299.671326,2.488293 299.003479,1.366218 
	C299.666656,1.666665 300.333344,2.333332 301.000000,3.500002 
z"/>
<path fill="#47704C" opacity="1.000000" stroke="none" 
	d="
M18.677896,55.742046 
	C14.584234,64.449013 10.642509,72.810310 6.700785,81.171608 
	C6.290089,81.122475 5.879394,81.073341 5.468698,81.024208 
	C5.312868,79.521194 5.023334,78.018364 5.021307,76.515137 
	C4.991925,54.724155 5.119964,32.931973 4.909372,11.142985 
	C4.862396,6.282511 6.528171,4.751478 11.258646,4.917298 
	C19.731779,5.214312 28.223028,4.961983 36.706200,5.016955 
	C42.039062,5.051513 42.495880,5.762592 40.298241,10.382646 
	C33.157471,25.394533 25.988157,40.392845 18.677896,55.742046 
z"/>
</svg>