<svg version="1.1" id="Layer_1" xmlns="http://www.w3.org/2000/svg" xmlns:xlink="http://www.w3.org/1999/xlink" x="0px" y="0px"
	 width="100%" viewBox="0 0 596 84" enable-background="new 0 0 596 84" xml:space="preserve">
<path fill="#FDFDFD" opacity="1.000000" stroke="none" 
	d="
M597.000000,23.000000 
	C597.000000,43.647663 597.000000,64.295326 597.000000,85.000000 
	C459.312439,85.000000 321.624878,85.000000 183.645020,84.708450 
	C184.824890,82.684998 186.758102,81.171570 187.698318,79.187576 
	C197.781723,57.910233 207.743927,36.575108 217.655533,15.216918 
	C220.529800,9.023260 219.786942,5.672431 215.000000,1.000000 
	C342.333344,1.000000 469.666656,1.000000 597.000000,1.000000 
	C597.000000,4.034111 597.000000,7.030491 596.617920,10.457060 
	C588.074036,6.092801 582.617981,11.628197 576.531006,16.519989 
	C576.268005,14.165212 576.058899,12.293005 575.779053,9.787331 
	C571.052185,10.229821 566.639709,10.642877 562.126404,11.274502 
	C562.025513,11.493073 562.118469,11.965468 562.030640,12.429058 
	C562.001038,33.271454 562.059326,53.650261 562.070068,74.264038 
	C562.022644,74.499008 562.222107,74.934975 562.363220,75.335297 
	C567.243652,75.735626 571.983032,75.735626 576.884338,75.735626 
	C576.884338,64.422775 577.395020,53.771561 576.773987,43.186752 
	C575.618530,23.493282 581.495300,23.601521 597.000000,23.000000 
M549.127197,47.787106 
	C549.375488,47.641014 549.623779,47.494923 549.872009,47.348804 
	C549.632996,47.193130 549.394043,47.037457 549.344604,46.508831 
	C549.344604,46.508831 549.453186,46.104774 550.211304,45.651291 
	C550.137329,41.994896 550.287964,38.317528 549.948792,34.685902 
	C548.774231,22.109896 541.564331,13.096348 530.581299,10.181884 
	C518.114258,6.873632 505.023132,11.169933 498.381073,21.468107 
	C490.949493,32.990356 490.028900,45.651463 494.737518,58.308113 
	C499.131805,70.119904 508.754639,75.705627 520.937988,76.775673 
	C532.382568,77.780838 542.044495,74.128532 549.323181,64.536308 
	C546.607056,61.972347 544.086548,59.593105 541.577942,57.225063 
	C532.285583,65.449173 524.450867,67.307274 516.635071,63.230858 
	C510.549438,60.056824 507.295258,54.371304 507.986298,47.549423 
	C521.243652,47.549423 534.551575,47.549423 548.286865,47.713711 
	C548.286865,47.713711 548.717285,47.557098 549.127197,47.787106 
M334.066559,31.498663 
	C334.046204,31.332901 334.025818,31.167137 334.423615,30.474152 
	C337.629425,28.153818 340.835266,25.833487 344.788605,23.551434 
	C346.913910,23.496904 349.054413,23.573009 351.157715,23.328884 
	C352.109528,23.218410 352.987488,22.471622 354.054352,21.340006 
	C354.001221,20.885397 353.948059,20.430788 354.022980,19.192738 
	C353.985779,18.137177 353.948578,17.081614 354.074158,15.195889 
	C354.019958,13.791286 353.965759,12.386683 353.951904,10.402251 
	C353.630798,10.253878 353.309692,10.105505 352.335236,9.517880 
	C345.044830,8.262053 339.189667,10.852783 334.292389,16.653381 
	C333.904449,14.247559 333.581573,12.245525 333.308563,10.552409 
	C328.328247,10.552409 323.927765,10.552409 319.597229,10.552409 
	C319.597229,32.465256 319.597229,53.995087 319.597229,76.216019 
	C324.599304,75.771339 329.211273,75.361351 334.050110,74.505852 
	C334.050110,74.505852 333.948090,74.016403 334.150452,73.096161 
	C334.083008,59.392601 334.015533,45.689041 334.066559,31.498663 
M414.267639,60.073967 
	C414.275085,50.591599 414.375732,41.108158 414.266571,31.627132 
	C414.127625,19.563269 408.121155,12.652566 396.439178,9.830348 
	C389.119415,8.061994 382.210419,9.674620 375.468903,11.681913 
	C369.196838,13.549417 364.549164,17.990107 362.371674,24.407511 
	C361.978485,25.566235 362.132874,27.562971 362.889526,28.337938 
	C365.204620,30.709080 375.221558,28.828815 377.032318,25.940752 
	C380.576691,20.287691 388.793793,18.247805 394.588715,21.582409 
	C398.046143,23.571920 401.106750,30.652840 399.640381,34.290337 
	C397.939697,38.509029 393.947174,36.293514 390.936584,36.812675 
	C390.453674,36.895935 389.912079,36.911552 389.446594,36.782246 
	C382.013855,34.717522 375.372284,37.140587 369.133209,40.740192 
	C362.641876,44.485340 359.844818,50.595486 360.119202,57.920780 
	C360.397003,65.338745 364.123627,70.908333 370.747955,74.169319 
	C381.061371,79.246338 390.691956,77.672272 399.731323,70.243240 
	C400.243652,71.574692 400.705750,72.775589 401.171204,74.582970 
	C401.795563,74.935646 402.419952,75.288330 403.947388,75.795486 
	C407.616913,75.744255 411.286407,75.693024 415.519379,75.857132 
	C415.800781,75.201302 416.082214,74.545471 416.216248,73.110397 
	C415.508698,70.083160 414.801147,67.055923 414.256195,63.274948 
	C414.184479,62.511864 414.112762,61.748775 414.267639,60.073967 
M273.724335,63.076553 
	C267.914276,59.789577 265.197357,54.759140 264.817444,47.712654 
	C279.374603,47.712654 293.451447,47.712654 308.411774,47.712654 
	C307.768158,41.657501 307.585419,36.023987 306.501587,30.569525 
	C304.354828,19.765732 298.044312,12.420380 287.002869,10.024682 
	C275.205170,7.464902 264.924683,10.376625 257.063782,19.828205 
	C249.974747,28.351711 249.186523,38.574482 249.929474,49.093548 
	C250.843689,62.037380 259.394928,72.404404 271.872650,75.689682 
	C285.987671,79.406036 300.139343,74.791908 306.399597,64.258705 
	C303.923553,61.959976 301.409180,59.625648 298.793182,57.196983 
	C291.875641,64.664619 283.929382,67.299187 273.724335,63.076553 
M445.483887,32.782742 
	C442.329315,26.878498 443.847015,22.803993 450.015076,20.925266 
	C457.251862,18.721004 464.047974,20.662903 467.112640,29.585022 
	C471.734222,29.585022 476.311310,29.585022 480.855103,29.585022 
	C481.652802,19.772417 473.693451,12.169275 463.118866,10.161654 
	C457.612213,9.116186 451.702423,9.832558 446.007751,10.228428 
	C438.516693,10.749181 430.688812,18.591270 429.512848,27.137581 
	C428.651031,33.400631 430.724640,39.383144 439.327484,43.562862 
	C443.464996,45.573105 448.074554,46.609032 452.464233,48.104031 
	C456.216766,49.382042 460.192139,50.250381 463.648956,52.089386 
	C467.850098,54.324360 468.247559,59.258411 465.208771,62.685471 
	C459.561462,69.054337 443.210052,65.908096 441.839325,58.026245 
	C441.643127,56.898067 439.601654,55.422798 438.290314,55.284744 
	C434.693390,54.906082 431.030487,55.154163 426.652222,55.154163 
	C427.384125,57.906761 427.683411,60.211403 428.591003,62.244473 
	C432.860809,71.808731 441.106689,75.855537 450.827423,76.803070 
	C461.249420,77.818962 471.387573,76.366234 478.369202,67.388412 
	C483.620972,60.635067 482.822845,48.676056 475.018463,44.034431 
	C470.612976,41.414299 465.589935,39.772079 460.737457,37.981003 
	C455.939209,36.209980 451.005493,34.805931 445.483887,32.782742 
z"/>
<path fill="#EC2D41" opacity="1.000000" stroke="none" 
	d="
M105.000000,85.000000 
	C70.333313,85.000000 35.666634,85.000000 1.000000,85.000000 
	C1.000000,81.605446 1.000000,78.285675 1.318308,74.336365 
	C9.035054,57.951813 16.322374,42.143284 23.876043,26.463058 
	C28.018677,17.863604 32.610641,9.480601 37.000000,1.000000 
	C59.354229,1.000000 81.708458,1.000000 104.463562,1.464576 
	C104.909622,29.619434 104.954811,57.309719 105.000000,85.000000 
z"/>
<path fill="#01A9E5" opacity="1.000000" stroke="none" 
	d="
M214.531342,1.000000 
	C219.786942,5.672431 220.529800,9.023260 217.655533,15.216918 
	C207.743927,36.575108 197.781723,57.910233 187.698318,79.187576 
	C186.758102,81.171570 184.824890,82.684998 183.176361,84.708450 
	C160.979111,85.000000 138.958206,85.000000 116.459480,84.531418 
	C115.987762,56.375217 115.993881,28.687609 116.000000,1.000000 
	C148.687561,1.000000 181.375122,1.000000 214.531342,1.000000 
z"/>
<path fill="#FFFDFD" opacity="1.000000" stroke="none" 
	d="
M36.531342,1.000000 
	C32.610641,9.480601 28.018677,17.863604 23.876043,26.463058 
	C16.322374,42.143284 9.035054,57.951813 1.318308,73.853409 
	C1.000000,49.764740 1.000000,25.529480 1.000000,1.000000 
	C12.685917,1.000000 24.374300,1.000000 36.531342,1.000000 
z"/>
<path fill="#262222" opacity="1.000000" stroke="none" 
	d="
M562.227295,11.055941 
	C566.639709,10.642877 571.052185,10.229821 575.779053,9.787331 
	C576.058899,12.293005 576.268005,14.165212 576.531006,16.519989 
	C582.617981,11.628197 588.074036,6.092801 596.617920,10.943624 
	C597.000000,14.692909 597.000000,18.385818 597.000000,22.539364 
	C581.495300,23.601521 575.618530,23.493282 576.773987,43.186752 
	C577.395020,53.771561 576.884338,64.422775 576.884338,75.735626 
	C571.983032,75.735626 567.243652,75.735626 562.499573,75.230148 
	C562.369019,74.492813 562.243286,74.260948 562.117554,74.029076 
	C562.059326,53.650261 562.001038,33.271454 562.193604,12.374324 
	C562.511047,11.763474 562.654602,11.626920 562.631165,11.585972 
	C562.521729,11.394850 562.366272,11.230113 562.227295,11.055941 
z"/>
<path fill="#FCFCFD" opacity="1.000000" stroke="none" 
	d="
M115.541931,1.000000 
	C115.993881,28.687609 115.987762,56.375217 115.990822,84.531418 
	C112.638710,85.000000 109.277428,85.000000 105.458069,85.000000 
	C104.954811,57.309719 104.909622,29.619434 104.932220,1.464576 
	C108.361290,1.000000 111.722572,1.000000 115.541931,1.000000 
z"/>
<path fill="#272323" opacity="1.000000" stroke="none" 
	d="
M274.059387,63.272263 
	C283.929382,67.299187 291.875641,64.664619 298.793182,57.196983 
	C301.409180,59.625648 303.923553,61.959976 306.399597,64.258705 
	C300.139343,74.791908 285.987671,79.406036 271.872650,75.689682 
	C259.394928,72.404404 250.843689,62.037380 249.929474,49.093548 
	C249.186523,38.574482 249.974747,28.351711 257.063782,19.828205 
	C264.924683,10.376625 275.205170,7.464902 287.002869,10.024682 
	C298.044312,12.420380 304.354828,19.765732 306.501587,30.569525 
	C307.585419,36.023987 307.768158,41.657501 308.411774,47.712654 
	C293.451447,47.712654 279.374603,47.712654 264.817444,47.712654 
	C265.197357,54.759140 267.914276,59.789577 274.059387,63.272263 
M266.192474,30.971291 
	C265.761017,32.829468 265.329559,34.687645 264.843475,36.780983 
	C274.500763,36.780983 283.587433,36.780983 292.662415,36.780983 
	C293.175964,28.526062 289.651611,22.767805 283.271790,21.243900 
	C275.933136,19.490973 270.338745,22.536572 266.192474,30.971291 
z"/>
<path fill="#252121" opacity="1.000000" stroke="none" 
	d="
M401.167847,73.976486 
	C400.705750,72.775589 400.243652,71.574692 399.731323,70.243240 
	C390.691956,77.672272 381.061371,79.246338 370.747955,74.169319 
	C364.123627,70.908333 360.397003,65.338745 360.119202,57.920780 
	C359.844818,50.595486 362.641876,44.485340 369.133209,40.740192 
	C375.372284,37.140587 382.013855,34.717522 389.446594,36.782246 
	C389.912079,36.911552 390.453674,36.895935 390.936584,36.812675 
	C393.947174,36.293514 397.939697,38.509029 399.640381,34.290337 
	C401.106750,30.652840 398.046143,23.571920 394.588715,21.582409 
	C388.793793,18.247805 380.576691,20.287691 377.032318,25.940752 
	C375.221558,28.828815 365.204620,30.709080 362.889526,28.337938 
	C362.132874,27.562971 361.978485,25.566235 362.371674,24.407511 
	C364.549164,17.990107 369.196838,13.549417 375.468903,11.681913 
	C382.210419,9.674620 389.119415,8.061994 396.439178,9.830348 
	C408.121155,12.652566 414.127625,19.563269 414.266571,31.627132 
	C414.375732,41.108158 414.275085,50.591599 413.883514,60.706024 
	C413.697449,62.234951 413.895508,63.131821 414.093567,64.028694 
	C414.801147,67.055923 415.508698,70.083160 416.021820,73.627487 
	C415.536896,74.643639 415.246399,75.142708 414.955933,75.641785 
	C411.286407,75.693024 407.616913,75.744255 403.437500,75.449272 
	C402.341034,74.727531 401.754456,74.352005 401.167847,73.976486 
M375.288696,53.167908 
	C374.610321,61.492474 377.757355,65.340080 385.856781,64.975929 
	C396.984039,64.475662 402.231018,58.794228 399.093658,45.212559 
	C395.314697,45.212559 391.483795,44.895149 387.727966,45.290665 
	C382.717987,45.818245 377.774902,46.914215 375.288696,53.167908 
z"/>
<path fill="#272323" opacity="1.000000" stroke="none" 
	d="
M547.859436,47.549431 
	C534.551575,47.549423 521.243652,47.549423 507.986298,47.549423 
	C507.295258,54.371304 510.549438,60.056824 516.635071,63.230858 
	C524.450867,67.307274 532.285583,65.449173 541.577942,57.225063 
	C544.086548,59.593105 546.607056,61.972347 549.323181,64.536308 
	C542.044495,74.128532 532.382568,77.780838 520.937988,76.775673 
	C508.754639,75.705627 499.131805,70.119904 494.737518,58.308113 
	C490.028900,45.651463 490.949493,32.990356 498.381073,21.468107 
	C505.023132,11.169933 518.114258,6.873632 530.581299,10.181884 
	C541.564331,13.096348 548.774231,22.109896 549.948792,34.685902 
	C550.287964,38.317528 550.137329,41.994896 549.480286,46.009209 
	C548.452698,46.761230 548.156067,47.155334 547.859436,47.549431 
M528.763306,22.408491 
	C517.508484,17.990330 507.526550,24.932211 508.178619,36.556732 
	C517.373108,36.556732 526.553772,36.556732 535.878845,36.556732 
	C535.218872,30.959099 534.478516,25.874767 528.763306,22.408491 
z"/>
<path fill="#272323" opacity="1.000000" stroke="none" 
	d="
M445.807556,33.011818 
	C451.005493,34.805931 455.939209,36.209980 460.737457,37.981003 
	C465.589935,39.772079 470.612976,41.414299 475.018463,44.034431 
	C482.822845,48.676056 483.620972,60.635067 478.369202,67.388412 
	C471.387573,76.366234 461.249420,77.818962 450.827423,76.803070 
	C441.106689,75.855537 432.860809,71.808731 428.591003,62.244473 
	C427.683411,60.211403 427.384125,57.906761 426.652222,55.154163 
	C431.030487,55.154163 434.693390,54.906082 438.290314,55.284744 
	C439.601654,55.422798 441.643127,56.898067 441.839325,58.026245 
	C443.210052,65.908096 459.561462,69.054337 465.208771,62.685471 
	C468.247559,59.258411 467.850098,54.324360 463.648956,52.089386 
	C460.192139,50.250381 456.216766,49.382042 452.464233,48.104031 
	C448.074554,46.609032 443.464996,45.573105 439.327484,43.562862 
	C430.724640,39.383144 428.651031,33.400631 429.512848,27.137581 
	C430.688812,18.591270 438.516693,10.749181 446.007751,10.228428 
	C451.702423,9.832558 457.612213,9.116186 463.118866,10.161654 
	C473.693451,12.169275 481.652802,19.772417 480.855103,29.585022 
	C476.311310,29.585022 471.734222,29.585022 467.112640,29.585022 
	C464.047974,20.662903 457.251862,18.721004 450.015076,20.925266 
	C443.847015,22.803993 442.329315,26.878498 445.807556,33.011818 
z"/>
<path fill="#292525" opacity="1.000000" stroke="none" 
	d="
M333.823212,74.951363 
	C329.211273,75.361351 324.599304,75.771339 319.597229,76.216019 
	C319.597229,53.995087 319.597229,32.465256 319.597229,10.552409 
	C323.927765,10.552409 328.328247,10.552409 333.308563,10.552409 
	C333.581573,12.245525 333.904449,14.247559 334.292389,16.653381 
	C339.189667,10.852783 345.044830,8.262053 352.744019,9.967098 
	C353.313019,10.729202 353.565918,10.917791 353.911530,10.982080 
	C353.965759,12.386683 354.019958,13.791286 353.731262,15.810329 
	C353.557190,17.608574 353.726044,18.792376 353.894928,19.976177 
	C353.948059,20.430788 354.001221,20.885397 353.540741,21.658253 
	C350.031769,22.488716 347.036438,23.000933 344.041077,23.513153 
	C340.835266,25.833487 337.629425,28.153818 334.038788,30.823776 
	C333.574432,31.275215 333.410706,31.446377 333.428528,31.467991 
	C333.583221,31.655729 333.770508,31.816610 333.948090,31.985487 
	C334.015533,45.689041 334.083008,59.392601 333.879578,73.616806 
	C333.532227,74.228912 333.372955,74.371262 333.392792,74.403488 
	C333.513641,74.600021 333.675232,74.771515 333.823212,74.951363 
z"/>
<path fill="#110C0C" opacity="1.000000" stroke="none" 
	d="
M344.414856,23.532291 
	C347.036438,23.000933 350.031769,22.488716 353.463043,21.995003 
	C352.987488,22.471622 352.109528,23.218410 351.157715,23.328884 
	C349.054413,23.573009 346.913910,23.496904 344.414856,23.532291 
z"/>
<path fill="#110C0C" opacity="1.000000" stroke="none" 
	d="
M353.958954,19.584457 
	C353.726044,18.792376 353.557190,17.608574 353.649841,16.225410 
	C353.948578,17.081614 353.985779,18.137177 353.958954,19.584457 
z"/>
<path fill="#3E3939" opacity="1.000000" stroke="none" 
	d="
M401.169525,74.279724 
	C401.754456,74.352005 402.341034,74.727531 402.985962,75.372040 
	C402.419952,75.288330 401.795563,74.935646 401.169525,74.279724 
z"/>
<path fill="#3E3939" opacity="1.000000" stroke="none" 
	d="
M415.237640,75.749451 
	C415.246399,75.142708 415.536896,74.643639 416.095520,74.017105 
	C416.082214,74.545471 415.800781,75.201302 415.237640,75.749451 
z"/>
<path fill="#100808" opacity="1.000000" stroke="none" 
	d="
M414.174866,63.651821 
	C413.895508,63.131821 413.697449,62.234951 413.770203,61.161884 
	C414.112762,61.748775 414.184479,62.511864 414.174866,63.651821 
z"/>
<path fill="#000000" opacity="1.000000" stroke="none" 
	d="
M334.007324,31.742077 
	C333.770508,31.816610 333.583221,31.655729 333.428528,31.467991 
	C333.410706,31.446377 333.574432,31.275215 333.829712,31.087387 
	C334.025818,31.167137 334.046204,31.332901 334.007324,31.742077 
z"/>
<path fill="#1A1515" opacity="1.000000" stroke="none" 
	d="
M548.073120,47.631577 
	C548.156067,47.155334 548.452698,46.761230 549.101196,46.235954 
	C549.453186,46.104774 549.344604,46.508831 549.102661,46.839714 
	C548.860779,47.170601 548.717285,47.557098 548.717285,47.557098 
	C548.717285,47.557098 548.286865,47.713711 548.073120,47.631577 
z"/>
<path fill="#272323" opacity="1.000000" stroke="none" 
	d="
M549.007935,47.026192 
	C549.394043,47.037457 549.632996,47.193130 549.872009,47.348816 
	C549.623779,47.494923 549.375488,47.641014 548.922241,47.672104 
	C548.717285,47.557098 548.860779,47.170601 549.007935,47.026192 
z"/>
<path fill="#000000" opacity="1.000000" stroke="none" 
	d="
M562.126404,11.274510 
	C562.366272,11.230113 562.521729,11.394850 562.631165,11.585972 
	C562.654602,11.626920 562.511047,11.763474 562.281494,11.910734 
	C562.118469,11.965468 562.025513,11.493073 562.126404,11.274510 
z"/>
<path fill="#110C0C" opacity="1.000000" stroke="none" 
	d="
M353.931702,10.692166 
	C353.565918,10.917791 353.313019,10.729202 353.070679,10.186724 
	C353.309692,10.105505 353.630798,10.253878 353.931702,10.692166 
z"/>
<path fill="#000000" opacity="1.000000" stroke="none" 
	d="
M333.936646,74.728607 
	C333.675232,74.771515 333.513641,74.600021 333.392792,74.403488 
	C333.372955,74.371262 333.532227,74.228912 333.778412,74.076927 
	C333.948090,74.016403 334.050110,74.505852 333.936646,74.728607 
z"/>
<path fill="#000000" opacity="1.000000" stroke="none" 
	d="
M562.070068,74.264046 
	C562.243286,74.260948 562.369019,74.492813 562.358459,74.829826 
	C562.222107,74.934975 562.022644,74.499008 562.070068,74.264046 
z"/>
<path fill="#F8F8F8" opacity="1.000000" stroke="none" 
	d="
M266.398987,30.644171 
	C270.338745,22.536572 275.933136,19.490973 283.271790,21.243900 
	C289.651611,22.767805 293.175964,28.526062 292.662415,36.780983 
	C283.587433,36.780983 274.500763,36.780983 264.843475,36.780983 
	C265.329559,34.687645 265.761017,32.829468 266.398987,30.644171 
z"/>
<path fill="#F9F9F9" opacity="1.000000" stroke="none" 
	d="
M375.435455,52.801899 
	C377.774902,46.914215 382.717987,45.818245 387.727966,45.290665 
	C391.483795,44.895149 395.314697,45.212559 399.093658,45.212559 
	C402.231018,58.794228 396.984039,64.475662 385.856781,64.975929 
	C377.757355,65.340080 374.610321,61.492474 375.435455,52.801899 
z"/>
<path fill="#F9F9F9" opacity="1.000000" stroke="none" 
	d="
M529.084106,22.627043 
	C534.478516,25.874767 535.218872,30.959099 535.878845,36.556732 
	C526.553772,36.556732 517.373108,36.556732 508.178619,36.556732 
	C507.526550,24.932211 517.508484,17.990330 529.084106,22.627043 
z"/>
</svg>